<?xml version="1.0" encoding="utf-8"?>
<!-- Generator: Adobe Illustrator 19.2.0, SVG Export Plug-In . SVG Version: 6.00 Build 0)  -->
<!DOCTYPE svg PUBLIC "-//W3C//DTD SVG 1.1//EN" "http://www.w3.org/Graphics/SVG/1.1/DTD/svg11.dtd">
<svg version="1.1" id="Layer_1" xmlns="http://www.w3.org/2000/svg" xmlns:xlink="http://www.w3.org/1999/xlink" x="0px" y="0px"
	 width="231px" height="235px" viewBox="0 0 231 235" style="enable-background:new 0 0 231 235;" xml:space="preserve">
<style type="text/css">
	.st0{fill:#D6DF31;}
	.st1{fill:#747666;}
	.st2{fill:#2D2D2F;}
	.st3{fill:#4F4E20;}
</style>
<polygon class="st0" points="28.1,141.1 26.3,133.3 31.9,104.2 50.5,70.8 62.1,59.9 100.5,48.9 130.5,45.7 128.1,38.5 151.3,38.5 
	157.4,41.2 161.2,46.2 179.3,46.2 183.1,75.1 189,94.6 210.3,99.9 190.3,105.8 209,124.5 201.8,128.8 178,109.3 177.5,103.1 
	172.1,97.8 170,92.2 170.3,86.9 163.3,84.2 158.2,95.4 158,112.2 171.9,135.2 156.6,135.2 151,123.7 148.6,112.5 146.2,105.8 
	145.7,97 145.7,89.9 141.1,97.5 132.1,114.1 126.7,132.5 111,135.5 106.7,129.6 106.9,121.8 110.2,113.8 110.7,106.6 116.6,97.8 
	119.5,93.5 103.7,101.3 88.5,106.3 78.6,114.1 92.4,138.7 76.8,138.9 63.7,115.4 66.3,106.6 62.3,106.1 53.5,113.8 44.4,126.4 
	42.8,137.9 "/>
<polygon class="st1" points="170.3,86.9 175.2,104.7 192.3,105.4 207.6,101.4 193.3,96.1 173.4,89.1 "/>
<g>
	<path class="st1" d="M54.4,178c0.3,0.3,0.4,0.6,0.4,1v17.4c0,1.1-0.2,2.2-0.7,3.2c-0.4,1-1,1.9-1.8,2.6c-0.7,0.8-1.6,1.3-2.6,1.8
		c-1,0.4-2.1,0.6-3.2,0.6h-25c-1.1,0-2.2-0.2-3.2-0.6s-1.9-1-2.6-1.8c-0.8-0.8-1.3-1.6-1.8-2.6c-0.4-1-0.6-2.1-0.6-3.2v-32.9
		c0-1.1,0.2-2.2,0.6-3.2s1-1.9,1.8-2.6c0.8-0.7,1.6-1.3,2.6-1.8c1-0.4,2.1-0.7,3.2-0.7h29.2c0.4,0,0.7,0.1,0.9,0.4
		c0.3,0.3,0.4,0.6,0.4,1v9.3c0,0.4-0.1,0.7-0.4,1c-0.3,0.3-0.6,0.4-0.9,0.4H27.1c-0.4,0-0.7,0.1-1,0.4c-0.3,0.2-0.4,0.5-0.4,0.9
		v22.9c0,0.4,0.1,0.7,0.4,0.9c0.3,0.2,0.6,0.4,1,0.4h14c0.4,0,0.7-0.1,0.9-0.4c0.2-0.2,0.4-0.5,0.4-0.9v-12.4c0-0.4,0.1-0.7,0.4-1
		c0.3-0.3,0.6-0.4,1-0.4h9.8C53.8,177.6,54.2,177.7,54.4,178z"/>
	<path class="st1" d="M109.2,203.4c0.2,0.3,0.2,0.6,0.1,0.8s-0.4,0.3-0.8,0.3H97.3c-0.4,0-0.8-0.1-1.1-0.3c-0.4-0.2-0.7-0.5-0.8-0.8
		L87.8,190c-0.1-0.2-0.3-0.3-0.5-0.3H79c-0.2,0-0.4,0.1-0.4,0.4v13.1c0,0.9-0.4,1.3-1.3,1.3h-9.7c-0.9,0-1.3-0.4-1.3-1.3v-46.7
		c0-0.9,0.4-1.3,1.3-1.3h31.9c1.1,0,2.2,0.2,3.2,0.7c1,0.4,1.9,1,2.6,1.8c0.7,0.7,1.3,1.6,1.8,2.6c0.4,1,0.7,2.1,0.7,3.2V182
		c0,1.8-0.5,3.4-1.6,4.8c-1.1,1.4-2.4,2.4-4.1,2.9l-0.2,0.1c-0.3,0.1-0.4,0.2-0.2,0.4l0.1,0.1L109.2,203.4z M95.2,166.7h-17v12h17
		V166.7z"/>
	<path class="st1" d="M135.2,203.2c0,0.9-0.4,1.3-1.3,1.3h-9.7c-0.9,0-1.3-0.4-1.3-1.3v-46.7c0-0.9,0.4-1.3,1.3-1.3h9.7
		c0.9,0,1.3,0.4,1.3,1.3V203.2z"/>
	<path class="st1" d="M184,165.8c0,0.4-0.1,0.7-0.4,1c-0.3,0.3-0.6,0.4-1,0.4h-10c-0.4,0-0.7,0.1-0.9,0.4c-0.3,0.2-0.4,0.5-0.4,0.9
		v34.8c0,0.4-0.1,0.7-0.4,0.9c-0.2,0.3-0.5,0.4-0.9,0.4h-9.8c-0.4,0-0.7-0.1-1-0.4c-0.3-0.3-0.4-0.6-0.4-0.9v-34.8
		c0-0.4-0.1-0.7-0.4-0.9c-0.2-0.2-0.5-0.4-0.9-0.4h-10c-0.4,0-0.7-0.1-0.9-0.4c-0.3-0.3-0.4-0.6-0.4-1v-9.3c0-0.9,0.4-1.3,1.3-1.3
		h10h2.6h9.8h2.6h10c0.4,0,0.7,0.1,1,0.4c0.3,0.3,0.4,0.6,0.4,1V165.8z"/>
</g>
<path class="st2" d="M218.8,124.1c-4.6-1.3-16.9-5.8-21-18c10.9-1.2,23.8-8.3,23.8-8.3l-8.2-0.1c-8-0.1-15.1-1.7-21.1-3.8
	c-7.8-21.7-9.3-47.3-9.3-47.5c-0.1-1.5-1.3-2.7-2.8-2.8c-6.5-0.3-12.8-0.5-19-0.6l-1.6-3.2c-1.7-2.9-4.9-4.7-8.3-4.7h-0.1
	c-8.5,0.1-16.7,0.3-24.4,0.8l-4.3,0.3l3.5,7.6c-31.8,2.1-50.5,7.5-60.6,11.8c-5.6,2.4-10.8,6-14.9,10.6
	c-23.3,26.2-27.6,67.5-27.8,69.2l-0.3,3.2h22.2v-2.9c0-7.5,6.1-18.2,16.4-24.8c3.3,19.4,13.3,26.9,13.7,27.2l0.8,0.6h16.8l6.6,0
	l-4.4-4.9c-0.1-0.1-6.6-7.3-8.9-14.3c-1.7-5,4.3-9.9,5.4-10.7c6.4-0.8,13.4-2.5,20.4-5.8c-4.2,8.7-8.6,21.8-4.3,33.8l0.7,2h20.6
	l0.4-2.5c0-0.3,2.8-19,11.6-33.6c1.7,23,12.3,34.3,12.8,34.8l0.9,0.9h17.2h4.9l-2.4-4.3c-0.1-0.2-12.7-23.3-12.7-35.2
	c0-7,3.6-10,6.1-11.2c6.4,35.3,34.2,45.4,35.4,45.8l1.2,0.4l15.1-8.4C219.5,125.1,219.4,124.3,218.8,124.1z M154.2,81.8
	c-0.8,0.3-1.6,0.7-2.4,1.1l0,0c-19.8,10.3-26.7,40.8-28.4,49.9h-11.3c-4.3-16.6,9.7-36.1,9.9-36.3l9.9-13.5c0.2-0.2-0.1-0.5-0.3-0.3
	l-13.6,9.8c-9.3,6.7-19.6,9.5-28.5,10.5c-5,0.6-8.2-5.1-5.2-9.2c4.6-6.4,7.7-14.2,7.8-22.9c0-0.3-0.4-0.3-0.5-0.1
	c-1.4,6-6.8,22.5-26.6,31.5c-14.7,6.7-24.2,19.8-25.7,30.5h-10c1.5-10.1,7.5-41.9,25.9-62.7c3.6-4,7.8-7.1,12.7-9.1
	c10.2-4.3,29.4-9.7,63-11.6l4.3-0.2l-3.6-7.6c6.4-0.3,13-0.5,19.8-0.6c0,0,0,0,0,0c1.3,0,2.1,0.6,3.3,1.9l13.2,13.8
	c0.2,0.2,0.5,0,0.4-0.3l-3.8-7.5c4.3,0.1,8.6,0.2,13.1,0.4c0.5,6.6,2.4,24.4,7.8,41.5c-4.4-2.2-7.9-4.4-10.4-6.2
	C168.9,80.3,161.1,79.1,154.2,81.8z M173.4,89.1c5.7,4,15.6,9.6,28.8,11.9c-5.7,1.1-13.9,1.7-24.5,0.5
	C175.9,97.9,174.5,93.8,173.4,89.1z"/>
<path class="st1" d="M101.8,35.3l-1.8-5.9l9.1-3.5l7.4,15.8c1.5-0.1,3.1-0.3,4.7-0.4L105.9,8.7c-0.5-1-1.7-1.5-2.8-1.1l-21.2,8
	c-0.6,0.2-1,0.6-1.2,1.2c-0.2,0.5-0.2,1.2,0,1.7l1.4,3.4C53.7,36.1,50.5,47.4,50.5,47.4s12.2-7.5,49.3-9.3
	C101.2,38,102.2,36.6,101.8,35.3z"/>
<path class="st2" d="M184.6,143.9h-171c-0.2,0-0.3-0.1-0.3-0.3v-9.8c0-0.2,0.1-0.3,0.3-0.3h171c0.2,0,0.3,0.1,0.3,0.3v9.8
	C184.9,143.8,184.8,143.9,184.6,143.9z"/>
<g>
	<path class="st3" d="M22.2,214.3c0.3,0,0.6,0.1,0.8,0.2c0.3,0.1,0.5,0.3,0.7,0.5c0.2,0.2,0.3,0.4,0.5,0.7c0.1,0.3,0.2,0.5,0.2,0.8
		v8.6c0,0.3-0.1,0.6-0.2,0.8c-0.1,0.3-0.3,0.5-0.5,0.7c-0.2,0.2-0.4,0.4-0.7,0.5c-0.3,0.1-0.5,0.2-0.8,0.2h-8.4
		c-0.2,0-0.4-0.1-0.4-0.4v-12.3c0-0.2,0.1-0.4,0.4-0.4H22.2z M16.7,224.1h4.4v-6.7h-4.4V224.1z"/>
	<path class="st3" d="M31.7,226.9c0,0.2-0.1,0.4-0.4,0.4h-2.6c-0.2,0-0.4-0.1-0.4-0.4v-12.3c0-0.2,0.1-0.4,0.4-0.4h2.6
		c0.2,0,0.4,0.1,0.4,0.4V226.9z"/>
	<path class="st3" d="M46.5,220.3c0.1,0.1,0.1,0.2,0.1,0.3v4.6c0,0.3-0.1,0.6-0.2,0.8c-0.1,0.3-0.3,0.5-0.5,0.7s-0.4,0.4-0.7,0.5
		c-0.3,0.1-0.5,0.2-0.8,0.2h-6.6c-0.3,0-0.6-0.1-0.8-0.2c-0.3-0.1-0.5-0.3-0.7-0.5c-0.2-0.2-0.4-0.4-0.5-0.7
		c-0.1-0.3-0.2-0.5-0.2-0.8v-8.6c0-0.3,0.1-0.6,0.2-0.8c0.1-0.3,0.3-0.5,0.5-0.7c0.2-0.2,0.4-0.3,0.7-0.5c0.3-0.1,0.5-0.2,0.8-0.2
		h7.7c0.1,0,0.2,0,0.3,0.1c0.1,0.1,0.1,0.2,0.1,0.3v2.4c0,0.1,0,0.2-0.1,0.3c-0.1,0.1-0.2,0.1-0.3,0.1h-6.2c-0.1,0-0.2,0-0.3,0.1
		c-0.1,0.1-0.1,0.1-0.1,0.2v6c0,0.1,0,0.2,0.1,0.2c0.1,0.1,0.2,0.1,0.3,0.1h3.7c0.1,0,0.2,0,0.2-0.1c0.1-0.1,0.1-0.1,0.1-0.2v-3.2
		c0-0.1,0-0.2,0.1-0.3c0.1-0.1,0.2-0.1,0.3-0.1h2.6C46.3,220.2,46.4,220.2,46.5,220.3z"/>
	<path class="st3" d="M53.7,226.9c0,0.2-0.1,0.4-0.4,0.4h-2.6c-0.2,0-0.4-0.1-0.4-0.4v-12.3c0-0.2,0.1-0.4,0.4-0.4h2.6
		c0.2,0,0.4,0.1,0.4,0.4V226.9z"/>
	<path class="st3" d="M66.9,217.1c0,0.1,0,0.2-0.1,0.3c-0.1,0.1-0.2,0.1-0.3,0.1H64c-0.1,0-0.2,0-0.3,0.1c-0.1,0.1-0.1,0.1-0.1,0.2
		v9.1c0,0.1,0,0.2-0.1,0.3c-0.1,0.1-0.1,0.1-0.2,0.1h-2.6c-0.1,0-0.2,0-0.3-0.1c-0.1-0.1-0.1-0.2-0.1-0.3v-9.1c0-0.1,0-0.2-0.1-0.2
		s-0.1-0.1-0.2-0.1h-2.6c-0.1,0-0.2,0-0.3-0.1c-0.1-0.1-0.1-0.2-0.1-0.3v-2.4c0-0.2,0.1-0.4,0.4-0.4H60h0.7h2.6H64h2.6
		c0.1,0,0.2,0,0.3,0.1c0.1,0.1,0.1,0.2,0.1,0.3V217.1z"/>
	<path class="st3" d="M78.9,214.3c0.3,0,0.6,0.1,0.8,0.2c0.3,0.1,0.5,0.3,0.7,0.5c0.2,0.2,0.3,0.4,0.5,0.7c0.1,0.3,0.2,0.5,0.2,0.8
		v10.5c0,0.1,0,0.2-0.1,0.3c-0.1,0.1-0.2,0.1-0.3,0.1h-2.6c-0.1,0-0.2,0-0.3-0.1c-0.1-0.1-0.1-0.2-0.1-0.3v-3.3c0-0.1,0-0.2-0.1-0.3
		c-0.1-0.1-0.1-0.1-0.2-0.1h-3.7c-0.1,0-0.2,0-0.3,0.1c-0.1,0.1-0.1,0.2-0.1,0.3v3.3c0,0.2-0.1,0.4-0.4,0.4h-2.6
		c-0.2,0-0.4-0.1-0.4-0.4v-10.5c0-0.3,0.1-0.6,0.2-0.8c0.1-0.3,0.3-0.5,0.5-0.7c0.2-0.2,0.4-0.3,0.7-0.5c0.3-0.1,0.5-0.2,0.8-0.2
		H78.9z M77.8,220.5v-3.3h-4.4v3.3H77.8z"/>
	<path class="st3" d="M93.5,224.1c0.1,0,0.2,0,0.2,0.1c0.1,0.1,0.1,0.2,0.1,0.3v2.4c0,0.1,0,0.2-0.1,0.3c-0.1,0.1-0.1,0.1-0.2,0.1
		h-8c-0.2,0-0.4-0.1-0.4-0.4v-12.3c0-0.2,0.1-0.4,0.4-0.4H88c0.2,0,0.4,0.1,0.4,0.4v9.1c0,0.1,0,0.2,0.1,0.2
		c0.1,0.1,0.2,0.1,0.3,0.1H93.5z"/>
	<path class="st3" d="M117.9,214.3c0.1,0,0.2,0,0.3,0.1c0.1,0.1,0.1,0.2,0.1,0.3v12.3c0,0.1,0,0.2-0.1,0.3c-0.1,0.1-0.2,0.1-0.3,0.1
		h-2.6c-0.1,0-0.2,0-0.3-0.1c-0.1-0.1-0.1-0.2-0.1-0.3v-4.3c0-0.1,0-0.2-0.1-0.2c-0.1-0.1-0.1-0.1-0.2-0.1H111c-0.1,0-0.2,0-0.3,0.1
		c-0.1,0.1-0.1,0.1-0.1,0.2v4.3c0,0.2-0.1,0.4-0.4,0.4h-2.6c-0.2,0-0.4-0.1-0.4-0.4v-12.3c0-0.2,0.1-0.4,0.4-0.4h2.6
		c0.2,0,0.4,0.1,0.4,0.4v4.2c0,0.2,0.1,0.4,0.4,0.4h3.7c0.1,0,0.2,0,0.2-0.1c0.1-0.1,0.1-0.2,0.1-0.3v-4.2c0-0.1,0-0.2,0.1-0.3
		c0.1-0.1,0.2-0.1,0.3-0.1H117.9z"/>
	<path class="st3" d="M125.5,217.4v2c0,0,0,0.1,0.1,0.1h5.3c0.1,0,0.2,0,0.3,0.1c0.1,0.1,0.1,0.2,0.1,0.3v1.9c0,0.2-0.1,0.4-0.4,0.4
		h-5.3c-0.1,0-0.1,0-0.1,0.1v2c0,0.1,0,0.1,0.1,0.1h6.2c0.1,0,0.2,0,0.3,0.1c0.1,0.1,0.1,0.2,0.1,0.3v2.3c0,0.1,0,0.2-0.1,0.3
		c-0.1,0.1-0.2,0.1-0.3,0.1h-7.4c-0.3,0-0.6-0.1-0.8-0.2c-0.3-0.1-0.5-0.3-0.7-0.5c-0.2-0.2-0.4-0.4-0.5-0.7
		c-0.1-0.3-0.2-0.5-0.2-0.8v-8.6c0-0.3,0.1-0.6,0.2-0.8c0.1-0.3,0.3-0.5,0.5-0.7c0.2-0.2,0.4-0.3,0.7-0.5c0.3-0.1,0.5-0.2,0.8-0.2
		h7.4c0.1,0,0.2,0,0.3,0.1c0.1,0.1,0.1,0.2,0.1,0.3v2.3c0,0.1,0,0.2-0.1,0.2c-0.1,0.1-0.2,0.1-0.3,0.1L125.5,217.4
		C125.5,217.3,125.5,217.3,125.5,217.4z"/>
	<path class="st3" d="M144.9,214.3c0.3,0,0.6,0.1,0.8,0.2c0.3,0.1,0.5,0.3,0.7,0.5c0.2,0.2,0.3,0.4,0.5,0.7c0.1,0.3,0.2,0.5,0.2,0.8
		v10.5c0,0.1,0,0.2-0.1,0.3c-0.1,0.1-0.2,0.1-0.3,0.1h-2.6c-0.1,0-0.2,0-0.3-0.1c-0.1-0.1-0.1-0.2-0.1-0.3v-3.3c0-0.1,0-0.2-0.1-0.3
		c-0.1-0.1-0.1-0.1-0.2-0.1h-3.7c-0.1,0-0.2,0-0.3,0.1c-0.1,0.1-0.1,0.2-0.1,0.3v3.3c0,0.2-0.1,0.4-0.4,0.4h-2.6
		c-0.2,0-0.4-0.1-0.4-0.4v-10.5c0-0.3,0.1-0.6,0.2-0.8c0.1-0.3,0.3-0.5,0.5-0.7c0.2-0.2,0.4-0.3,0.7-0.5c0.3-0.1,0.5-0.2,0.8-0.2
		H144.9z M143.8,220.5v-3.3h-4.4v3.3H143.8z"/>
	<path class="st3" d="M159.5,224.1c0.1,0,0.2,0,0.2,0.1c0.1,0.1,0.1,0.2,0.1,0.3v2.4c0,0.1,0,0.2-0.1,0.3c-0.1,0.1-0.1,0.1-0.2,0.1
		h-8c-0.2,0-0.4-0.1-0.4-0.4v-12.3c0-0.2,0.1-0.4,0.4-0.4h2.6c0.2,0,0.4,0.1,0.4,0.4v9.1c0,0.1,0,0.2,0.1,0.2
		c0.1,0.1,0.2,0.1,0.3,0.1H159.5z"/>
	<path class="st3" d="M170.5,217.1c0,0.1,0,0.2-0.1,0.3c-0.1,0.1-0.2,0.1-0.3,0.1h-2.6c-0.1,0-0.2,0-0.3,0.1
		c-0.1,0.1-0.1,0.1-0.1,0.2v9.1c0,0.1,0,0.2-0.1,0.3c-0.1,0.1-0.1,0.1-0.2,0.1h-2.6c-0.1,0-0.2,0-0.3-0.1c-0.1-0.1-0.1-0.2-0.1-0.3
		v-9.1c0-0.1,0-0.2-0.1-0.2s-0.1-0.1-0.2-0.1h-2.6c-0.1,0-0.2,0-0.3-0.1c-0.1-0.1-0.1-0.2-0.1-0.3v-2.4c0-0.2,0.1-0.4,0.4-0.4h2.6
		h0.7h2.6h0.7h2.6c0.1,0,0.2,0,0.3,0.1c0.1,0.1,0.1,0.2,0.1,0.3V217.1z"/>
	<path class="st3" d="M184.4,214.3c0.1,0,0.2,0,0.3,0.1c0.1,0.1,0.1,0.2,0.1,0.3v12.3c0,0.1,0,0.2-0.1,0.3c-0.1,0.1-0.2,0.1-0.3,0.1
		h-2.6c-0.1,0-0.2,0-0.3-0.1c-0.1-0.1-0.1-0.2-0.1-0.3v-4.3c0-0.1,0-0.2-0.1-0.2c-0.1-0.1-0.1-0.1-0.2-0.1h-3.7
		c-0.1,0-0.2,0-0.3,0.1c-0.1,0.1-0.1,0.1-0.1,0.2v4.3c0,0.2-0.1,0.4-0.4,0.4h-2.6c-0.2,0-0.4-0.1-0.4-0.4v-12.3
		c0-0.2,0.1-0.4,0.4-0.4h2.6c0.2,0,0.4,0.1,0.4,0.4v4.2c0,0.2,0.1,0.4,0.4,0.4h3.7c0.1,0,0.2,0,0.2-0.1c0.1-0.1,0.1-0.2,0.1-0.3
		v-4.2c0-0.1,0-0.2,0.1-0.3c0.1-0.1,0.2-0.1,0.3-0.1H184.4z"/>
</g>
</svg>
