<svg xmlns="http://www.w3.org/2000/svg" viewBox="0 0 1512.91 220.6"><defs><style>.a{fill:#bcbcbc;}</style></defs><title>YOU-Lockup-Wide</title><path class="a" d="M486.1,103.63c-16.63,0-27.82,13.62-27.82,32.54s11.19,32.55,27.82,32.55,27.81-13.76,27.81-32.55-11.18-32.54-27.81-32.54m-.43,86.74c-32.55,0-53.34-23.37-53.34-54.2s21.8-54.34,54.34-54.34S540,105.2,540,136.17s-21.93,54.2-54.34,54.2" transform="translate(-54.53 -25.8)"/><path class="a" d="M603.73,190.37c-28.24,0-44-15.2-44-44.45V83.55h24.38V144.2c0,14.91,6.31,24,20.21,24s20.08-9,20.08-24V83.55h24.38v62.37c0,29.25-16.79,44.45-45,44.45" transform="translate(-54.53 -25.8)"/><polygon class="a" points="340.81 121.27 340.81 162.84 316.44 162.84 316.44 121.13 279.45 57.75 307.41 57.75 328.91 98.04 350.42 57.75 377.8 57.75 340.81 121.27"/><path class="a" d="M134.05,153.86H195.6l-30.77-53.29Zm34.89-17.77a4.12,4.12,0,1,1-4.11-4.11A4.12,4.12,0,0,1,168.94,136.09Z" transform="translate(-54.53 -25.8)"/><path class="a" d="M164.83,25.8A110.3,110.3,0,1,0,275.12,136.1,110.3,110.3,0,0,0,164.83,25.8Zm19.48,61.55,32.47,56.25h-7.22l-28.86-50Zm-39,0L149,93.6l-28.87,50h-7.21Zm-24.08,66.52-4,7H111l4-7Zm11.09,23.47,3.61-6.25H193.7l3.6,6.25Zm99.7-2.43a14,14,0,0,1-24.3,0l-2.62-4.54h8l.61,1.06a7.07,7.07,0,1,0,6.12-10.6H130l-8.13,14.08a14,14,0,1,1-12.15-21H115l-4,7h-1.21a7.07,7.07,0,1,0,6.11,10.6L159.43,96l1.37-2.39-8.13-14.07a14,14,0,1,1,24.3,0l-2.62,4.54-4-7,.6-1.06a7.06,7.06,0,1,0-12.23,0l6.12,10.6,38.82,67.23H219.9a14,14,0,0,1,12.15,21ZM202,165h8l3.13,5.42h-8Zm-27.65-80.9-3.12,5.43-4-7,3.13-5.42Z" transform="translate(-54.53 -25.8)"/><path class="a" d="M754.2,163.39H743.63v-5.82c-3.34,4.3-8.35,7.08-15.23,7.08-13.56,0-24.24-10.67-24.24-25.5s10.68-25.5,24.24-25.5c6.88,0,11.89,2.83,15.23,7.13v-5.87H754.2ZM715,139.15c0,8.5,5.52,15.54,14.62,15.54,8.76,0,14.63-6.68,14.63-15.54s-5.87-15.53-14.63-15.53C720.56,123.62,715,130.65,715,139.15Z" transform="translate(-54.53 -25.8)"/><path class="a" d="M803.84,124.53H785.27v21.1c0,6.52,3.44,9.06,7.69,9.06a19.43,19.43,0,0,0,9.77-3.29l4.2,8.45a26.19,26.19,0,0,1-14.88,4.8c-11,0-17.4-5.92-17.4-18.82v-21.3H765v-9.62h9.67V100.24h10.62v14.67h18.57Z" transform="translate(-54.53 -25.8)"/><path class="a" d="M949.22,104.42l-10,6.71c-6.85-10.36-18.77-16.77-32.56-16.77-23.4,0-41.29,17-41.29,42.1s17.89,42.11,41.29,42.11c13.79,0,25.56-6.26,32.56-16.69l9.69,7.15c-8.64,13-24.29,21.09-42.25,21.09-31,0-53.88-22.36-53.88-53.66s22.88-53.65,53.88-53.65C924.85,82.81,941,91,949.22,104.42Z" transform="translate(-54.53 -25.8)"/><path class="a" d="M1072.7,136.46c0,31.3-22.8,53.66-53.88,53.66s-53.88-22.36-53.88-53.66,22.88-53.65,53.88-53.65S1072.7,105.16,1072.7,136.46Zm-95.16,0c0,25.12,17.88,42.11,41.28,42.11s41.36-17,41.36-42.11-17.88-42.1-41.36-42.1S977.54,111.35,977.54,136.46Z" transform="translate(-54.53 -25.8)"/><path class="a" d="M1160.26,188.63H1087.9V84.3h12v93h60.36Z" transform="translate(-54.53 -25.8)"/><path class="a" d="M1256.62,188.63h-72.37V84.3h12v93h60.37Z" transform="translate(-54.53 -25.8)"/><path class="a" d="M1348.05,188.63h-73.41V84.3h72.74V95.55h-60.74v35h58.88v11.18h-58.88v35.7h61.41Z" transform="translate(-54.53 -25.8)"/><path class="a" d="M1463.18,100.32l-8.86,8.5a40.42,40.42,0,0,0-31.6-14.46c-23.4,0-41.29,17-41.29,42.1s17.89,42.11,40.77,42.11c22.06,0,35.69-13.12,37.56-34.51h-32.5V132.89h45.46c.08,1,.15,2.08.15,3.05,0,30.41-19.23,54.11-50.67,54.11-27.43,0-53.36-19.83-53.36-53.59,0-31.37,23.1-53.65,53.88-53.65C1439.26,82.81,1453.64,89.36,1463.18,100.32Z" transform="translate(-54.53 -25.8)"/><path class="a" d="M1567.43,188.63H1494V84.3h72.73V95.55H1506v35h58.87v11.18H1506v35.7h61.4Z" transform="translate(-54.53 -25.8)"/></svg>