<?xml version="1.0" encoding="utf-8"?>
<!-- Generator: Adobe Illustrator 16.2.1, SVG Export Plug-In . SVG Version: 6.00 Build 0)  -->
<!DOCTYPE svg PUBLIC "-//W3C//DTD SVG 1.1//EN" "http://www.w3.org/Graphics/SVG/1.1/DTD/svg11.dtd">
<svg version="1.1" id="Layer_1" xmlns="http://www.w3.org/2000/svg" xmlns:xlink="http://www.w3.org/1999/xlink" x="0px" y="0px"
	 width="157.539px" height="196.642px" viewBox="0 0 157.539 196.642" enable-background="new 0 0 157.539 196.642"
	 xml:space="preserve">
<path fill="#808073" d="M95.203,121.606c-1.611,0-2.921-1.309-2.921-2.924v-9.688l0.01-0.002c-0.013-0.66,0.151-1.33,0.501-1.94
	c0.998-1.727,3.152-2.358,4.919-1.489l5.045,2.923l5.649-9.787l-10.71-6.181c-1.394-0.804-1.867-2.592-1.064-3.988l4.061-7.039
	c0.811-1.394,2.592-1.872,3.991-1.068l22.128,12.78c1.401,0.805,1.882,2.594,1.076,3.99l-4.065,7.034
	c-0.805,1.4-2.595,1.882-3.986,1.071l-6.359-3.667v-0.004l-5.644,9.781l11.989,6.908c2.801,1.617,6.378,0.655,8.001-2.142
	l12.402-21.496c1.622-2.799,0.663-6.381-2.138-7.999l-17.164-9.905c-0.508-0.315-0.951-0.753-1.271-1.305
	c-1.037-1.801-0.419-4.1,1.379-5.139l0,0l17.057-9.847c2.793-1.621,3.755-5.204,2.138-8.002l-12.402-21.489
	c-1.619-2.805-5.2-3.76-8.004-2.145l-5.858,3.383l5.642,9.767l0.233-0.129c1.392-0.81,3.182-0.327,3.986,1.068l4.065,7.036
	c0.808,1.399,0.325,3.185-1.07,3.99l-3.295,1.903c-1.396,0.806-3.18,0.329-3.988-1.069l-11.161-19.335l-5.694,3.287
	c-0.528,0.286-1.134,0.458-1.782,0.457c-2.068,0.001-3.749-1.671-3.766-3.733l0.005-0.029l-11.284,0.003v12.359
	c0.004,1.613-1.308,2.92-2.916,2.92h-8.131c-1.611,0.002-2.918-1.307-2.922-2.92V22.251c0-1.615,1.309-2.925,2.922-2.925h8.131
	c1.611,0,2.916,1.309,2.916,2.918v7.346h11.284l-0.005-13.842c0.005-3.237-2.626-5.855-5.854-5.855L66.458,9.896
	c-3.229,0-5.855,2.618-5.855,5.858v19.733c-0.021,2.059-1.696,3.721-3.758,3.721c-0.646,0-1.248-0.172-1.783-0.458l-5.694-3.288
	L38.202,54.798c-0.806,1.397-2.592,1.875-3.989,1.069l-3.288-1.905c-1.4-0.803-1.882-2.589-1.072-3.988l4.06-7.036
	c0.807-1.396,2.599-1.878,3.998-1.068l0.223,0.129l5.644-9.768l-5.865-3.382c-2.797-1.615-6.379-0.655-7.998,2.145L17.51,52.482
	c-1.621,2.798-0.657,6.382,2.143,8l17.049,9.842l11.161-19.336c0.756-1.31,2.354-1.807,3.72-1.203
	c0.013,0.005,8.455,4.862,8.455,4.862c1.397,0.804,1.875,2.591,1.071,3.986l-4.061,7.041c-0.809,1.396-2.595,1.875-3.996,1.068
	l-5.22-3.011l-5.656,9.795c-0.26,0.322-0.552,0.479-0.873,0.652v0.004L19.655,86.68c-2.803,1.618-3.764,5.204-2.146,8.002
	l2.71,4.697l32.831-18.957c1.399-0.81,3.182-0.326,3.994,1.068l4.058,7.039c0.81,1.393,0.327,3.182-1.064,3.991l-32.833,18.954
	l2.709,4.696c1.619,2.801,5.201,3.76,7.998,2.146l17.136-9.896c0.536-0.294,1.141-0.463,1.797-0.463c2.073,0,3.754,1.68,3.758,3.755
	v4.019h10.938V99.36c0-1.614,1.31-2.923,2.923-2.923h3.927c1.61-0.002,2.922,1.309,2.922,2.923v19.322
	c0,1.615-1.312,2.924-2.922,2.924H60.604v3.483c0,3.232,2.625,5.854,5.855,5.851h10.005c2.693,0,4.877,2.177,4.877,4.868v1.464
	h10.941v-1.464c0-2.682,2.173-4.855,4.854-4.864v-9.329L95.203,121.606z M109.88,50.989l4.059,7.035
	c0.808,1.402,0.331,3.186-1.066,3.993l-8.188,4.725c-1.393,0.807-3.181,0.328-3.991-1.068l-4.061-7.041
	c-0.803-1.392-0.329-3.183,1.064-3.986l8.189-4.728C107.282,49.111,109.072,49.591,109.88,50.989z"/>
<g>
	<path fill="#808073" d="M34.498,167.056c-0.205-1.979-1.659-3.403-3.667-3.403c-3.085,0-5.122,2.27-5.122,7.535
		c0,5.269,1.834,7.54,4.686,7.54c2.91,0,4.074-2.244,4.307-3.67l4.075,0.902c-0.175,1.05-1.572,6.086-8.673,6.086
		c-5.413,0-8.994-3.725-8.994-10.858c0-7.131,3.988-10.856,9.722-10.856c4.308,0,6.781,2.272,7.712,5.881L34.498,167.056z"/>
	<path fill="#808073" d="M48.248,160.826h5.558l7.538,20.726h-4.569l-1.659-4.834h-8.557l-1.717,4.834h-4.395L48.248,160.826z
		 M54.067,173.517l-2.3-6.521c-0.318-0.9-0.639-1.949-0.814-2.85h-0.145c-0.146,0.9-0.437,1.979-0.756,2.85l-2.389,6.521H54.067z"/>
	<path fill="#808073" d="M76.35,167.056c-0.205-1.979-1.659-3.403-3.667-3.403c-3.085,0-5.123,2.27-5.123,7.535
		c0,5.269,1.834,7.54,4.687,7.54c2.91,0,4.073-2.244,4.307-3.67l4.074,0.902c-0.174,1.05-1.572,6.086-8.673,6.086
		c-5.413,0-8.993-3.725-8.993-10.858c0-7.131,3.986-10.856,9.722-10.856c4.306,0,6.781,2.272,7.712,5.881L76.35,167.056z"/>
	<path fill="#808073" d="M88.148,164.262h-5.674v-3.437h15.715v3.437h-5.677v17.289h-4.364V164.262z"/>
	<path fill="#808073" d="M117.581,160.826v12.576c0,5.675-2.852,8.645-8.614,8.645c-5.181,0-8.033-2.97-8.033-8.645v-12.576h4.191
		v12.576c0,3.173,1.019,5.326,4.132,5.326c3.114,0,4.134-2.153,4.134-5.326v-12.576H117.581z"/>
	<path fill="#808073" d="M132.232,165.894c-0.29-0.875-0.785-2.36-3.025-2.36c-2.358,0-3.262,1.312-3.262,2.474
		c0,1.049,0.38,1.545,1.777,2.128l4.54,1.889c2.938,1.222,4.365,2.795,4.365,5.53c0,3.495-2.736,6.492-8.005,6.492
		c-4.801,0-7.014-2.735-7.479-4.861l3.928-1.486c0.203,1.371,1.077,3.029,3.756,3.029c2.096,0,3.435-1.078,3.435-2.738
		c0-1.075-0.612-1.889-2.504-2.616l-2.765-1.078c-2.708-1.018-5.413-2.503-5.413-5.793c0-2.881,1.949-6.171,7.537-6.171
		c3.436,0,5.938,0.847,7.072,4.252L132.232,165.894z"/>
</g>
</svg>
