<svg xmlns="http://www.w3.org/2000/svg" viewBox="0 0 904.18 160.13"><defs><style>.a{fill:#bcbcbc;}</style></defs><title>ManTherapy-logo-wide</title><path class="a" d="M152.61,189l-3.34-55.38c-.16-3.5-.33-10.34-.33-12.68h-2a65.75,65.75,0,0,1-1.84,12.68l-14.51,54.71H103.4L88.22,133.63A60.64,60.64,0,0,1,86.39,121h-2c0,2.34-.17,9.68-.34,12.68L79.88,189c-8.34,0-18.85-.67-25.35-2.17,2.33-36,5.84-74.39,10-110.92h32l18.35,63.88a87.75,87.75,0,0,1,2.5,14.35h2a103.5,103.5,0,0,1,2-14.51L138.1,75.92h32.52c4,36.36,7.34,74.89,9.68,110.76A179.21,179.21,0,0,1,152.61,189Z" transform="translate(-54.53 -64.24)"/><path class="a" d="M256,190c-7.34,0-13-1.67-17-9h-1.17c-6.84,6.18-14.35,9-22.69,9-16.18,0-26.35-8.17-26.35-26.35C188.78,144.31,200,139,221,138l12.34-.5V126.79c-3.5-1.67-8.5-2.33-13.34-2.33a49,49,0,0,0-20.18,4A102.55,102.55,0,0,1,196,103.61a86.09,86.09,0,0,1,25.69-4c13.18,0,28.36,2.84,38,10.51v50.21c0,2.34,1.17,3.67,3.67,3.67h10.51v9.51C273.85,184,268.18,190,256,190Zm-22.69-37-9.67.5c-5.34.34-7.51,2.34-7.51,8.84,0,6.17,2,8.51,6.68,8.51a21.76,21.76,0,0,0,10.5-2.67Z" transform="translate(-54.53 -64.24)"/><path class="a" d="M328.1,188.34V131.63c0-5.34-1.66-7.67-8.5-7.67a26,26,0,0,0-11.85,3v61.38H280.23v-85.9a239.37,239.37,0,0,1,27.52-1.67v8.67h1.34c8.17-7.83,14.51-9.84,22.68-9.84,13.68,0,23.86,7.68,23.86,27.19v61.55Z" transform="translate(-54.53 -64.24)"/><path class="a" d="M464.05,100.77H441.2v87.57H411.51V100.77H387.32V75.92h78.9A189.91,189.91,0,0,1,464.05,100.77Z" transform="translate(-54.53 -64.24)"/><path class="a" d="M521.53,188.34V131.63c0-4.34-.84-7.67-8.51-7.67a25.47,25.47,0,0,0-11.84,3v61.38H473.66V66.24a231.8,231.8,0,0,1,27.52-2v45.2h1.33c7-6.5,12.68-9.84,22.69-9.84,15.18,0,23.85,9.34,23.85,27.19v61.55Z" transform="translate(-54.53 -64.24)"/><path class="a" d="M635.45,152.48H589.58v1.34c0,9,4.67,11.84,15.18,11.84,6.84,0,14.34-1.5,24.52-6.67a147,147,0,0,1,6,24.68A82.68,82.68,0,0,1,604.42,190c-28.52,0-44.53-15.18-44.53-44.54,0-31,17.18-45.87,39.53-45.87,25.69,0,36.7,14.85,36.7,38.37C636.12,142,636,147.64,635.45,152.48ZM589.74,136.3h18.52a37,37,0,0,0,.17-4.34c0-8.84-2.67-13.17-8.84-13.17C593.75,118.79,589.74,123.29,589.74,136.3Z" transform="translate(-54.53 -64.24)"/><path class="a" d="M700,128.13a44,44,0,0,0-10.51-1.34A34.35,34.35,0,0,0,676,129.63v58.71H648.44v-85.9A239.37,239.37,0,0,1,676,100.77V112h1.33C685,101.27,690,99.6,695.14,99.6a24.8,24.8,0,0,1,7,1A230.91,230.91,0,0,1,700,128.13Z" transform="translate(-54.53 -64.24)"/><path class="a" d="M769.51,190c-7.34,0-13-1.67-17-9h-1.17c-6.84,6.18-14.34,9-22.68,9-16.18,0-26.36-8.17-26.36-26.35,0-19.35,11.18-24.69,32.2-25.69l12.34-.5V126.79c-3.5-1.67-8.51-2.33-13.35-2.33a49,49,0,0,0-20.18,4,103,103,0,0,1-3.84-24.85,86.19,86.19,0,0,1,25.69-4c13.18,0,28.36,2.84,38,10.51v50.21c0,2.34,1.17,3.67,3.67,3.67h10.51v9.51C787.36,184,781.69,190,769.51,190Zm-22.68-37-9.68.5c-5.33.34-7.5,2.34-7.5,8.84,0,6.17,2,8.51,6.67,8.51a21.83,21.83,0,0,0,10.51-2.67Z" transform="translate(-54.53 -64.24)"/><path class="a" d="M833.11,190a60.56,60.56,0,0,1-11.84-1.67v34.37H793.74V102.44a239.54,239.54,0,0,1,27.53-1.67v8h1.33c6.17-6.84,12.51-9.18,19.52-9.18,18.51,0,30.69,13,30.69,41.87C872.81,174.17,855.13,190,833.11,190Zm-.83-67.39a17.76,17.76,0,0,0-11,3.67v38.53c2.5,1.51,6,1.84,9,1.84,9.85,0,13.52-5.51,13.52-23.35C843.79,126.29,839.45,122.62,832.28,122.62Z" transform="translate(-54.53 -64.24)"/><path class="a" d="M932.18,182.34c-10.34,31.36-24.52,42-41.53,42-4.5,0-12.84-.66-19.35-4a144.21,144.21,0,0,1,4.84-23.85,48.84,48.84,0,0,0,15.84,3c4.17,0,6.51-1.33,8.68-6.84l2.17-5.84c-9.51-20.85-21.86-54-28-84.4a244.19,244.19,0,0,1,26.69-1.67L913.67,145a79.46,79.46,0,0,1,2,10.51H917A78.14,78.14,0,0,1,919.17,145L932,100.77a196.78,196.78,0,0,1,26.69,1.84Z" transform="translate(-54.53 -64.24)"/></svg>