<svg xmlns="http://www.w3.org/2000/svg" viewBox="0 0 175.7 181.01"><defs><style>.a{fill:#69624f;}</style></defs><title>ManTherapy-Logo</title><path class="a" d="M85.88,125.22A4.07,4.07,0,0,0,83,121.34a4.05,4.05,0,0,0-3.69-2.4,4.26,4.26,0,0,0-1,.12A4,4,0,0,0,75.61,118a4,4,0,0,0-2.23.68,4,4,0,0,0-1.91-.48,4.08,4.08,0,0,0-3.36,1.77h-.29a4,4,0,0,0-3.95,3.18,4.14,4.14,0,0,0,1.62,8,4.09,4.09,0,0,0,2.26-.68,4,4,0,0,0,2.27.7,4,4,0,0,0,2.27-.7A4.49,4.49,0,0,0,74,131.51a4.07,4.07,0,0,1,2.26,3.65v2H77.7v-2.17a3.91,3.91,0,0,1,1.81-3.64,4.81,4.81,0,0,0,.9-.68.23.23,0,0,1,.07-.07,2.52,2.52,0,0,0,.62-1.2,2.94,2.94,0,0,0-.94-.15,3.21,3.21,0,0,0-1.2.24.43.43,0,0,1-.32-.79,3.92,3.92,0,0,1,1.52-.3,4,4,0,0,1,1,.14A3.23,3.23,0,0,0,78,125.27h0a4.05,4.05,0,0,1-1.81-.42,3.16,3.16,0,0,0-.78,2.09V127a3.24,3.24,0,0,0,.89,2.15h0a.42.42,0,0,1,0,.6.42.42,0,0,1-.3.12.39.39,0,0,1-.3-.13,4.08,4.08,0,0,1-1.11-2.39,3.7,3.7,0,0,0-.66-.07,3.38,3.38,0,0,0-1.52.38.32.32,0,0,1-.19,0,.44.44,0,0,1-.38-.22.43.43,0,0,1,.18-.58,4,4,0,0,1,1.91-.48,4.89,4.89,0,0,1,.66,0,4,4,0,0,1,.88-2.12,3.91,3.91,0,0,1-1.16-1.51,4.12,4.12,0,0,1-2.39.77,3.71,3.71,0,0,1-.88-.1,4.08,4.08,0,0,1-4,3.52h-.06a3.18,3.18,0,0,0-2.24.91.44.44,0,0,1-.29.12.4.4,0,0,1-.31-.13.41.41,0,0,1,0-.6,4,4,0,0,1,2.83-1.15H67a3.26,3.26,0,0,0,.83-.11,3.25,3.25,0,0,0-1.64-1.18.43.43,0,1,1,.27-.81,4.06,4.06,0,0,1,2.17,1.65,3.18,3.18,0,0,0,1.57-2.49,4.2,4.2,0,0,1-1.17-.82.43.43,0,0,1,0-.61.43.43,0,0,1,.6,0,3,3,0,0,0,1.18.75h0a3.14,3.14,0,0,0,1.09.2A3.2,3.2,0,0,0,74,122a3.5,3.5,0,0,1-.08-.8.43.43,0,0,1,.43-.43.43.43,0,0,1,.42.43,3.21,3.21,0,0,0,2.82,3.19A4,4,0,0,1,78.74,122a.43.43,0,0,1,.61,0,.43.43,0,0,1,0,.6,3.32,3.32,0,0,0-.92,1.88,4.08,4.08,0,0,1,3.14,2.12,3.3,3.3,0,0,0,2-1,.43.43,0,0,1,.6,0,.44.44,0,0,1,0,.61,4.08,4.08,0,0,1-2.25,1.26,4.08,4.08,0,0,1,.16,1.11v0a3.72,3.72,0,0,1-.6,2.17,4,4,0,0,1,1.87,1.7h0a.43.43,0,0,1-.17.58A.42.42,0,0,1,83,133a.44.44,0,0,1-.37-.22,3.16,3.16,0,0,0-1.71-1.44A5.35,5.35,0,0,1,80,132a3.05,3.05,0,0,0-1.4,2.9v4.57h1.53A6.2,6.2,0,0,1,83,134.93h0a4.06,4.06,0,0,0,2.44-3.41,4,4,0,0,0,.28-5.23A4.11,4.11,0,0,0,85.88,125.22Z" transform="translate(-3.9 -6.99)"/><path class="a" d="M100.73,83.31a30.57,30.57,0,0,0,6.38-.17l.23-.08L107.28,82a17.21,17.21,0,0,0-.21-1.94c-.14-.81-.16-.86-.53-1.24a2.33,2.33,0,0,0-.81-.55,3.42,3.42,0,0,1-.53-.23c-.21-.16-.11-.31.22-.33l.31,0V76.47H104.4l2.31-3.4.31-.18.57-.2c.31-.1.77-.23,1-.28a14.49,14.49,0,0,0,4-1.28c.78-.43,1.25-.71,1.45-.85l-1.15-.5,1.68-.08a6.15,6.15,0,0,0,1.1-.82l.59-.51-2.53-.53,2.94.17.46-.41.3-.26-4.35-.23,5.19-.5a15,15,0,0,0,2.16-2.07l-1.89-.82,2.58,0a6.54,6.54,0,0,0,.62-.69l1.9-2.5c.47-.61,1-1.31,1.13-1.54s.49-.69.74-1c.78-1,.78-1.12,0-.74s-1.39.58-2.34.9c-.41.14-1,.37-1.35.55l-2.52,2.59,1-1.84c-.21.12-.6.37-1,.68-.65.44-1.49,1-1.85,1.19a32.65,32.65,0,0,0-3.59,2.57A23.66,23.66,0,0,0,110,67.45c-.78.92-.78.91-1.08,1.25a5,5,0,0,0-.35.42l-.45.57c-.21.25-.58.76-.83,1.12s-.61.87-.8,1.12-.39.54-.45.64a36.17,36.17,0,0,0-2.32,3.89h-2.33v1.19l.37,0c.21,0,.36.07.36.13s0,.19-.62.41c-.78.38-1.13.68-1.25,1a24.65,24.65,0,0,0-.39,3C99.79,83.19,99.79,83.19,100.73,83.31Z" transform="translate(-3.9 -6.99)"/><path class="a" d="M105.11,116.36l15.57,15.58c.38-.48.75-1,1.11-1.45l-14.12-14.13Z" transform="translate(-3.9 -6.99)"/><path class="a" d="M123.21,116.36l4.46,4.46c.27-.59.53-1.17.79-1.77l-2.69-2.69Z" transform="translate(-3.9 -6.99)"/><path class="a" d="M114.16,116.36l10.28,10.28c.33-.52.66-1,1-1.58l-8.69-8.7Z" transform="translate(-3.9 -6.99)"/><path class="a" d="M95.49,142.93,102,149.4l1.48-1.08-7.94-7.94Z" transform="translate(-3.9 -6.99)"/><path class="a" d="M95.49,124.84,112,141.3c.44-.41.88-.82,1.31-1.24L95.49,122.28Z" transform="translate(-3.9 -6.99)"/><path class="a" d="M95.49,152l1.06,1.07,1.55-1-2.61-2.62Z" transform="translate(-3.9 -6.99)"/><path class="a" d="M95.49,133.89l11.6,11.6c.46-.38.93-.76,1.4-1.16l-13-13Z" transform="translate(-3.9 -6.99)"/><path class="a" d="M96.06,116.36l20.43,20.44,1.23-1.34-19.1-19.1Z" transform="translate(-3.9 -6.99)"/><polygon class="a" points="63.55 60.36 63.55 60.36 75.61 48.3 73.05 48.3 62.27 59.08 62.27 59.08 62.27 59.08 47.88 73.47 47.88 76.03 63.55 60.36 63.55 60.36"/><polygon class="a" points="54.5 51.31 57.51 48.3 54.95 48.3 53.22 50.03 53.22 50.03 47.88 55.37 47.88 57.93 54.5 51.31 54.5 51.31"/><polygon class="a" points="81.02 77.83 82.29 77.83 84.12 76 84.12 73.44 80.37 77.18 81.02 77.83"/><polygon class="a" points="77.13 73.94 84.12 66.95 84.12 64.39 75.84 72.66 77.13 73.94"/><polygon class="a" points="71.32 68.13 71.32 68.13 61.63 77.83 64.19 77.83 72.6 69.41 72.6 69.41 72.6 69.41 84.12 57.9 84.12 55.34 71.32 68.13 71.32 68.13"/><polygon class="a" points="66.8 63.61 52.58 77.83 55.14 77.83 68.08 64.89 84.12 48.85 84.12 48.3 82.1 48.3 66.8 63.61 66.8 63.61"/><polygon class="a" points="59.03 55.84 66.56 48.3 64 48.3 57.75 54.56 57.75 54.56 47.88 64.42 47.88 66.98 59.02 55.84 59.03 55.84"/><polygon class="a" points="47.88 48.3 47.88 48.88 48.46 48.3 47.88 48.3"/><polygon class="a" points="79.73 77.83 81.01 77.83 80.37 77.18 79.73 77.83"/><polygon class="a" points="70.68 77.83 73.24 77.83 77.13 73.94 75.84 72.66 70.68 77.83"/><polygon class="a" points="86.78 167.89 86.78 181.01 87.67 180.08 88.56 179.15 88.56 167.89 87.67 167.89 86.78 167.89"/><rect class="a" x="85.28" y="10.22" width="4.73" height="21.05"/><path class="a" d="M110,27.6a12.25,12.25,0,0,1-2.16,6.95,16.1,16.1,0,0,0,1.68,2.21A15,15,0,0,0,97.67,12.61H84.08v2.66H97.67A12.33,12.33,0,0,1,110,27.6Z" transform="translate(-3.9 -6.99)"/><path class="a" d="M105.53,40.33a14.53,14.53,0,0,1-1.5-2.2,12.2,12.2,0,0,1-6.36,1.79H84.08v2.67H97.67A14.85,14.85,0,0,0,105.53,40.33Z" transform="translate(-3.9 -6.99)"/><path class="a" d="M115.54,170.9a2.3,2.3,0,0,1-2.09,1.79c-2.86,0-4.94-2.25-8.27-4.68s-6.2-4.08-9-3.43a7.94,7.94,0,0,0-4.65,3.34,8.87,8.87,0,0,0-1.85-2,7.54,7.54,0,0,0-2.15-1.18,6.36,6.36,0,0,0-.66-.18c-2.84-.65-5.7,1-9,3.43s-5.42,4.66-8.28,4.68a2.3,2.3,0,0,1-2.09-1.79c-1,.54-1.47,5,2.88,5.91,11.16,2.41,14.59-4.27,21.18-7.76,6.58,3.49,10,10.17,21.17,7.76C117,175.87,116.5,171.44,115.54,170.9Z" transform="translate(-3.9 -6.99)"/><path class="a" d="M108.63,37.79A14.5,14.5,0,0,1,107,35.58a21.61,21.61,0,0,1-1.93-4.4h0a3.25,3.25,0,0,0,1.92-3c0-2.51-1.46-3.64-4.52-3.64-1.33,0-3.14,0-4.76.09a8.21,8.21,0,0,0,0,1,7.94,7.94,0,0,0,0,1l1.16.18v7.68l-1.16.17a7.94,7.94,0,0,0,0,1,8.37,8.37,0,0,0,0,1h4.59c0-.3,0-.7,0-1s0-.69,0-1l-.88-.17V32h1.23l.07,0,.22.6a27.41,27.41,0,0,0,2.2,4.77,14,14,0,0,0,1.59,2.14,11.77,11.77,0,0,0,3.59,2.62c3,1.45,7.19,1.06,9.52-1.59a6,6,0,0,0,.73-1,6.89,6.89,0,0,0,.47-1,5.37,5.37,0,0,0-.32-4.48,3,3,0,0,0-.81-1,4.85,4.85,0,0,1,.34,2.57c0,.15-.06.29-.09.44a5.39,5.39,0,0,1-2.42,3.42,7.11,7.11,0,0,1-9.18-1.7Zm-7.14-7.74v-3.5c.38,0,.91,0,1.2,0,1.17,0,1.72.5,1.72,1.67,0,1.33-.67,1.85-1.78,1.85Z" transform="translate(-3.9 -6.99)"/><path class="a" d="M117.65,34.83a1.23,1.23,0,1,0-1.22-1.23A1.23,1.23,0,0,0,117.65,34.83Z" transform="translate(-3.9 -6.99)"/><rect class="a" x="85.28" width="4.73" height="3.78"/><path class="a" d="M179.6,80.63h-9a94.27,94.27,0,0,0-12-35.12l-.77.45a93.18,93.18,0,0,1,11.9,34.67h-2.84a89.34,89.34,0,0,0-13.24-36.36l2.9-8.75-.34-.53c-4.94-7.79-14.07-18.18-24.89-24l-2-1.08L129.57,21,117,24.63l2.9,1.55a74.6,74.6,0,0,1,22.53,18.6l.4.48,9.35.05A87.71,87.71,0,0,1,165.1,80.63H140.25V87h-4V50.41H92.46V48h1.45V44.22H89.18V48h1.5v2.41H46.9V87H43.17V80.63H17.64A87.57,87.57,0,0,1,30.53,45.31l9.35-.05.4-.48A74.56,74.56,0,0,1,62.8,26.18l2.91-1.55L53.17,21,53.43,10l-2,1.08c-10.83,5.77-20,16.16-24.89,24l-.34.53,2.9,8.75A89.34,89.34,0,0,0,15.85,80.63H13A93.34,93.34,0,0,1,24.9,46l-.76-.45a94.28,94.28,0,0,0-12,35.12H3.9L13.21,94,3.9,107.29h8.26a94.08,94.08,0,0,0,12.15,35l.76-.44a93.38,93.38,0,0,1-12-34.6H16a89.27,89.27,0,0,0,13.14,35.54l-2.9,8.74.34.54c4.93,7.79,14.06,18.18,24.89,23.95l2,1.07-.26-11.06,12.54-3.6-2.91-1.55a74.56,74.56,0,0,1-22.52-18.6l-.4-.48-9.35-.05a87.57,87.57,0,0,1-12.78-34.5H33.36v6.41H47.69c4.8,24,30.32,40.7,39.8,46.17,1.93,1.12,3.2,1.77,3.48,1.91l.6.3.6-.3c1.66-.83,37.5-19.22,43.29-48.08h13.33v-6.41H165a87.41,87.41,0,0,1-12.77,34.5l-9.35.05-.4.48a74.6,74.6,0,0,1-22.53,18.6l-2.9,1.55,12.54,3.6-.27,11.06,2-1.07c10.82-5.77,20-16.16,24.89-23.95l.34-.54-2.9-8.74a89.11,89.11,0,0,0,13.13-35.54h2.91a93.21,93.21,0,0,1-12,34.6l.76.44a94.09,94.09,0,0,0,12.16-35h9L170.29,94ZM151.77,41.46c-.51-.72-1-1.44-1.56-2.14l1.88-5.67c.54.76,1.06,1.51,1.53,2.24Zm-2.87-3.84c-.76-1-1.54-1.91-2.34-2.84l1.55-6.25c.95,1.12,1.86,2.25,2.69,3.35Zm-1.5-9.92L145.84,34c-.79-.88-1.59-1.75-2.41-2.6l1-6.88Q146,26.09,147.4,27.7Zm-4.75,2.9-1.16-1.14h0l.93-6.93,1.23,1.19ZM139.91,28c-.82-.74-1.65-1.47-2.51-2.18l.45-7.26c1,.81,2,1.65,3,2.51Zm-3.35-2.87c-.55-.45-1.11-.89-1.67-1.32l.08-7.39c.69.48,1.37,1,2,1.47Zm-2.47-9.31L134,23.13l-1.75-1.26-.18-7.34C132.76,14.94,133.43,15.37,134.09,15.81Zm-2.86,7.51c1.13.8,2.24,1.61,3.32,2.46l-7,1.9c-1.18-.79-2.37-1.56-3.59-2.28Zm4.17,3.15c1.08.88,2.15,1.78,3.18,2.71l-6.68,1.61c-1.09-.85-2.21-1.66-3.34-2.45Zm4,3.44c.78.73,1.56,1.47,2.31,2.24l-6.55,1.29q-1.15-1-2.34-1.95Zm-2.58,5,6.36-1.26q1.75,1.88,3.4,3.86l-6.37.71C139.08,37.1,138,36,136.79,34.93Zm7.33,7.67c-1-1.23-2.09-2.4-3.17-3.55l6.27-.7q1.67,2.09,3.2,4.29Zm-105.5,0-6.3,0q1.53-2.2,3.2-4.29l6.27.7C40.71,40.2,39.65,41.37,38.62,42.6Zm3.94-4.36-6.37-.71c1.09-1.32,2.23-2.61,3.4-3.86L46,34.93C44.79,36,43.66,37.1,42.56,38.24Zm5-4.8-6.55-1.29c.75-.77,1.52-1.51,2.31-2.24L50,31.49Q48.76,32.43,47.61,33.44Zm3.22-2.65-6.68-1.61c1-.93,2.1-1.83,3.19-2.71l6.84,1.87C53.05,29.13,51.92,29.94,50.83,30.79Zm7.91-5.39c-1.22.72-2.42,1.49-3.6,2.28l-7-1.9c1.08-.85,2.19-1.66,3.32-2.46ZM50.66,14.53l-.18,7.35c-.59.41-1.17.83-1.75,1.25l-.08-7.32C49.31,15.37,50,14.94,50.66,14.53Zm-2.89,1.88.08,7.39c-.56.43-1.12.87-1.67,1.32l-.44-7.24C46.4,17.38,47.08,16.89,47.77,16.41Zm-2.88,2.14.44,7.26c-.85.71-1.68,1.44-2.51,2.19l-.93-6.94C42.86,20.2,43.86,19.36,44.89,18.55Zm-4.59,4,.93,6.93h0L40.09,30.6l-1-6.88C39.47,23.32,39.88,22.92,40.3,22.53Zm-2,2,1,6.89c-.83.84-1.63,1.71-2.41,2.59L35.34,27.7C36.27,26.63,37.26,25.56,38.29,24.5Zm-3.66,4,1.55,6.25c-.8.93-1.58,1.88-2.35,2.84l-1.9-5.74C32.77,30.78,33.67,29.65,34.63,28.53Zm-5.51,7.36c.47-.73,1-1.48,1.53-2.24l1.87,5.67C32,40,31.47,40.74,31,41.46ZM31,145.63c.5.73,1,1.44,1.55,2.15l-1.87,5.67c-.55-.76-1.06-1.51-1.53-2.24Zm2.86,3.84c.77,1,1.55,1.92,2.35,2.84l-1.55,6.26q-1.44-1.69-2.7-3.36Zm1.51,9.93,1.56-6.28c.78.88,1.58,1.75,2.41,2.59l-1,6.89C37.26,161.54,36.27,160.47,35.34,159.4Zm4.75-2.9,1.15,1.14h0l-.93,6.94c-.42-.4-.83-.79-1.23-1.19Zm2.73,2.6c.83.75,1.66,1.48,2.51,2.19l-.44,7.26c-1-.81-2-1.65-3-2.51ZM46.18,162c.55.45,1.11.88,1.67,1.32l-.08,7.38c-.69-.47-1.37-1-2-1.46Zm2.47,9.31.08-7.33c.58.43,1.16.85,1.75,1.26l.18,7.34C50,172.16,49.31,171.73,48.65,171.29Zm2.86-7.52c-1.13-.79-2.24-1.6-3.32-2.45l7-1.91q1.77,1.2,3.6,2.28Zm-4.17-3.14c-1.09-.88-2.15-1.78-3.19-2.72l6.68-1.6c1.09.85,2.22,1.66,3.35,2.45Zm-4-3.44c-.79-.73-1.56-1.48-2.31-2.24l6.55-1.29q1.16,1,2.34,2Zm2.58-5-6.36,1.26c-1.17-1.25-2.31-2.54-3.4-3.87l6.37-.7C43.66,150,44.79,151.11,46,152.17Zm-7.33-7.67q1.55,1.83,3.17,3.55l-6.27.69q-1.67-2.09-3.2-4.28Zm105.5,0,6.3,0q-1.53,2.19-3.2,4.29l-6.27-.7Q142.57,146.32,144.12,144.5Zm-3.94,4.36,6.37.7q-1.65,2-3.4,3.87l-6.36-1.26C138,151.11,139.08,150,140.18,148.86Zm-5.05,4.8,6.55,1.29c-.75.76-1.53,1.51-2.31,2.24l-6.58-1.58Q134,154.65,135.13,153.66Zm-3.23,2.65,6.68,1.6c-1,.94-2.1,1.84-3.18,2.72l-6.84-1.87C129.69,158,130.81,157.16,131.9,156.31Zm-7.9,5.38c1.22-.72,2.41-1.48,3.59-2.28l7,1.91c-1.08.85-2.19,1.66-3.32,2.45Zm8.08,10.87.18-7.34c.59-.41,1.17-.83,1.75-1.26l.08,7.33C133.43,171.73,132.76,172.16,132.08,172.56Zm2.89-1.88-.08-7.38c.56-.44,1.12-.87,1.67-1.32l.44,7.24C136.34,169.72,135.66,170.21,135,170.68Zm2.88-2.13-.45-7.26c.86-.71,1.69-1.44,2.51-2.19l.93,6.94C139.88,166.9,138.88,167.74,137.85,168.55Zm4.59-4-.93-6.94h0l1.16-1.14,1,6.88Zm2-2-1-6.89c.82-.84,1.62-1.71,2.41-2.59l1.56,6.28Q146,161,144.45,162.6Zm3.66-4-1.55-6.26c.8-.92,1.58-1.87,2.34-2.84l1.9,5.74C150,156.32,149.06,157.44,148.11,158.57Zm5.51-7.36c-.47.73-1,1.48-1.53,2.24l-1.88-5.67c.53-.71,1-1.42,1.56-2.15Zm17.29-46.59H148.79V87.09h0l0,0v0h0l-5.59-3.74h31.34l-3.16,4.52-.07.1-3.5,5-.44.62L167,94l.71,1,2.74,3.94.81,1.15,3.19,4.56Zm-24.78,2.67V111H36V89.71h110.1v17.58Zm-13.52,6.87c-.16.68-.33,1.35-.53,2a41.88,41.88,0,0,1-1.7,4.79c-.25.6-.51,1.19-.79,1.77a47.6,47.6,0,0,1-2.26,4.23c-.32.54-.64,1.07-1,1.59-.84,1.31-1.74,2.58-2.67,3.83q-.54.72-1.11,1.44c-.48.6-1,1.2-1.47,1.78s-1,1.17-1.51,1.74-.81.89-1.22,1.33c-1.07,1.12-2.15,2.21-3.24,3.25l-1.32,1.24q-1.72,1.59-3.45,3l-1.4,1.16q-1.86,1.5-3.65,2.84l-1.47,1.09c-1.34,1-2.63,1.85-3.83,2.66l-1.55,1c-1.52,1-2.88,1.82-4,2.48l-1.62.94-.38.21V113.7h40.26C132.68,113.85,132.65,114,132.61,114.16ZM9,104.62l2.48-3.55.81-1.16L15,96.05,16.47,94l-.29-.41L15,91.85,12.28,88l-.8-1.15L9,83.3h30.6L33.44,87h-.08v0h0v17.53H9ZM49.56,85.24V53.07H90.68V87H49.56ZM95.13,53.07h38.45V87H92.46v-34ZM50.43,113.7H90.68v44.9c-.79-.44-1.88-1.07-3.19-1.86C77.59,150.74,55.11,135,50.43,113.7Z" transform="translate(-3.9 -6.99)"/><path class="a" d="M55.42,104.42c-.18-2.54-.41-5.12-.66-7.68l1.05-.17c0-.29,0-.68,0-1s0-.7,0-1H51.57l-2,7.22-.1.37a6.88,6.88,0,0,0-.23,1.5H49a6.75,6.75,0,0,0-.25-1.5L46.9,95.74l-.34-1.15H42.35a8.26,8.26,0,0,0-.06,1,7.93,7.93,0,0,0,.06,1l.82.14.23,0c-.09.78-.15,1.56-.23,2.34-.16,1.78-.31,3.58-.43,5.34l-.84.18c0,.29,0,.68,0,1s0,.69,0,1h3.91a8.51,8.51,0,0,0,.06-1,7.93,7.93,0,0,0-.06-1l-.83-.18.37-4.8c0-.28,0-1.08,0-1.37h.19a7.11,7.11,0,0,0,.22,1.37l1.1,3.84.89,3.12h2.45l2-7a7.54,7.54,0,0,0,.21-1.37h.2c0,.29,0,1,0,1.37l.36,4.8-.86.18c0,.29,0,.68,0,1s0,.69,0,1h4.11a8.48,8.48,0,0,0,0-1,7.94,7.94,0,0,0,0-1Z" transform="translate(-3.9 -6.99)"/><path class="a" d="M67.84,104.44c-.94-3.31-2-6.54-3.11-9.85H61.65c-1.15,3.31-2.19,6.54-3.13,9.85l-.57.16c0,.29-.05.68-.05,1s0,.69.05,1h3.77a8.51,8.51,0,0,0,.06-1,7.93,7.93,0,0,0-.06-1l-.8-.16.39-1.33H64.9l.4,1.33-.8.16a7.93,7.93,0,0,0-.06,1,8.51,8.51,0,0,0,.06,1h3.91c0-.31,0-.7,0-1s0-.69,0-1Zm-6-3.27L62.79,98A6.48,6.48,0,0,0,63,96.87h.18A6.48,6.48,0,0,0,63.43,98l.92,3.15Z" transform="translate(-3.9 -6.99)"/><path class="a" d="M81.68,96.57c0-.29,0-.68,0-1s0-.7,0-1H76.89c0,.3,0,.69,0,1s0,.69,0,1l1,.17v2.65h-4V96.74l1-.17c0-.29,0-.68,0-1s0-.7,0-1H70.09a8.26,8.26,0,0,0-.06,1,7.93,7.93,0,0,0,.06,1l1.15.17v7.68l-1.15.18a7.93,7.93,0,0,0-.06,1,8.51,8.51,0,0,0,.06,1h4.78c0-.31,0-.7,0-1s0-.69,0-1l-1-.18v-2.88h4v2.88l-1,.18c0,.29,0,.68,0,1s0,.69,0,1h4.79c0-.31,0-.7,0-1s0-.69,0-1l-1.16-.18V96.74Z" transform="translate(-3.9 -6.99)"/><path class="a" d="M91.57,95.22a4,4,0,0,0-.89-.46,5.91,5.91,0,0,0-2.09-.35c-3.07,0-5.15,2.07-5.15,6.21s2,6.13,5.17,6.13a5.49,5.49,0,0,0,2.07-.37,4.47,4.47,0,0,0,.89-.48,4.32,4.32,0,0,0,.89-.87,8.49,8.49,0,0,0,0-9A3.8,3.8,0,0,0,91.57,95.22Zm-.89,7.89a1.94,1.94,0,0,1-2.07,1.46c-1.6,0-2.42-1-2.42-4s.79-4,2.4-4a2,2,0,0,1,2.09,1.51,7.66,7.66,0,0,1,.31,2.47A8,8,0,0,1,90.68,103.11Z" transform="translate(-3.9 -6.99)"/><path class="a" d="M100.72,102.22h1.71v2.15a4.45,4.45,0,0,1-1.35.2c-1.74,0-2.7-1-2.7-4s1-4,2.79-4a4.45,4.45,0,0,1,1.26.18l.14,1.19a11.25,11.25,0,0,0,1.16,0,9.9,9.9,0,0,0,1.1,0V95.05a10.5,10.5,0,0,0-3.68-.64c-3.24,0-5.53,1.87-5.53,6.16,0,4,1.81,6.18,5.44,6.18a9.52,9.52,0,0,0,4-.85v-5.81h-4.5A12.14,12.14,0,0,0,100.72,102.22Z" transform="translate(-3.9 -6.99)"/><path class="a" d="M116.79,104.44c-.94-3.31-2-6.54-3.11-9.85h-3.07c-1.16,3.31-2.19,6.54-3.13,9.85l-.57.16a7.93,7.93,0,0,0-.06,1,8.51,8.51,0,0,0,.06,1h3.77c0-.31,0-.7,0-1s0-.69,0-1l-.8-.16.39-1.33h3.59l.39,1.33-.8.16a7.94,7.94,0,0,0,0,1,8.48,8.48,0,0,0,0,1h3.91a8.51,8.51,0,0,0,.06-1,7.93,7.93,0,0,0-.06-1Zm-6-3.27.92-3.15a6.58,6.58,0,0,0,.24-1.15h.17a7.52,7.52,0,0,0,.23,1.15l.93,3.15Z" transform="translate(-3.9 -6.99)"/><path class="a" d="M126.19,94.59a8.26,8.26,0,0,0-.06,1,7.93,7.93,0,0,0,.06,1l1,.17v4.31a10.84,10.84,0,0,0,.07,1.37h-.18a6.81,6.81,0,0,0-.5-1.29l-3.72-6.54H119c0,.3-.05.69-.05,1s0,.69.05,1l1.16.17v7.68l-1.16.18c0,.29-.05.68-.05,1s0,.69.05,1h4.46a8.51,8.51,0,0,0,.06-1,7.93,7.93,0,0,0-.06-1l-1-.18V99.68a12.4,12.4,0,0,0-.09-1.35h.18a7.94,7.94,0,0,0,.49,1.28l4,7a15.57,15.57,0,0,0,2.37-.19V96.74l1-.17a7.94,7.94,0,0,0,0-1,8.27,8.27,0,0,0,0-1Z" transform="translate(-3.9 -6.99)"/><path class="a" d="M141.59,94.59h-3.76c0,.3-.05.69-.05,1s0,.69.05,1l.68.17-1,2.05a6,6,0,0,0-.43,1.14h-.18a5.94,5.94,0,0,0-.42-1.14l-.27-.57-.7-1.48.68-.17c0-.07,0-.15,0-.22,0-.25,0-.53,0-.76s0-.51,0-.77c0-.08,0-.16,0-.23h-4.14a8.27,8.27,0,0,0-.05,1,7.94,7.94,0,0,0,.05,1l.75.17c.23.53.49,1,.74,1.55.65,1.33,1.31,2.63,2,3.91v2.22l-1.16.18c0,.29,0,.68,0,1s0,.69,0,1h5c0-.31,0-.7,0-1s0-.69,0-1l-1.17-.18v-2.24c.71-1.26,1.37-2.55,2-3.86.26-.53.52-1,.76-1.58l.58-.13.17,0a7.94,7.94,0,0,0,.05-1,8.27,8.27,0,0,0-.05-1Z" transform="translate(-3.9 -6.99)"/><path class="a" d="M22.48,93.55a2.08,2.08,0,1,0,2.08-2.08A2.09,2.09,0,0,0,22.48,93.55Z" transform="translate(-3.9 -6.99)"/><path class="a" d="M160.07,93.55A2.09,2.09,0,1,0,158,95.64,2.08,2.08,0,0,0,160.07,93.55Z" transform="translate(-3.9 -6.99)"/><rect class="a" x="14.34" y="78.6" width="12.63" height="0.89"/><rect class="a" x="14.34" y="94.56" width="12.63" height="0.89"/><rect class="a" x="147.77" y="78.6" width="12.63" height="0.89"/><rect class="a" x="147.77" y="94.56" width="12.63" height="0.89"/></svg>