<svg xmlns="http://www.w3.org/2000/svg" viewBox="0 0 1336.93 577.4"><defs><style>.a{fill:#d2cd86;}</style></defs><title>YouLogo</title><rect class="a" x="607.99" y="359.23" width="683.21" height="9.04"/><path class="a" d="M907.93,103.78c-39.19,0-65.54,32.1-65.54,76.69,0,44.26,26.35,76.69,65.54,76.69s65.53-32.43,65.53-76.69c0-44.59-26.33-76.69-65.53-76.69m-1,204.39c-76.69,0-125.68-55.06-125.68-127.7,0-73,51.36-128,128-128,76.34,0,125.68,55.08,125.68,128.05,0,72.64-51.69,127.7-128.05,127.7"/><path class="a" d="M1185.11,308.17c-66.55,0-103.72-35.8-103.72-104.74v-147h57.43V199.38c0,35.15,14.86,56.43,47.64,56.43,32.44,0,47.31-21.28,47.31-56.43V56.47h57.43v147c0,68.94-39.54,104.74-106.09,104.74"/><polygon class="a" points="694.07 206.14 694.07 304.11 636.64 304.11 636.64 205.81 549.49 56.48 615.36 56.48 666.02 151.41 716.71 56.48 781.23 56.48 694.07 206.14"/><path class="a" d="M209.92,324H352L281,201Zm80.52-41a9.5,9.5,0,1,1-9.49-9.5A9.51,9.51,0,0,1,290.44,283Z"/><path class="a" d="M281,28.43c-140.6,0-254.57,114-254.57,254.56S140.35,537.56,281,537.56,535.51,423.59,535.51,283,421.55,28.43,281,28.43Zm45,142.06,75,129.82H384.2l-66.62-115.4Zm-89.93,0,8.33,14.42L177.68,300.31H161ZM180.39,324l-9.29,16.08H156.64L165.93,324ZM206,378.18l8.33-14.42H347.59l8.31,14.42Zm230.12-5.61a32.38,32.38,0,0,1-56.09,0l-6-10.47h18.56l1.41,2.44a16.31,16.31,0,1,0,14.11-24.47H200.63l-18.75,32.5a32.39,32.39,0,1,1-28-48.58h12.09l-9.29,16.08h-2.8A16.31,16.31,0,1,0,168,364.54L268.5,190.4l3.16-5.51L252.9,152.41a32.39,32.39,0,1,1,56.09,0l-6.05,10.48-9.27-16.09,1.4-2.44a16.3,16.3,0,1,0-28.24,0L281,168.81,370.55,324h37.5a32.39,32.39,0,0,1,28.06,48.58Zm-69.37-23h18.57l7.23,12.52H374Zm-63.81-186.7-7.21,12.53-9.29-16.1,7.23-12.52Z"/><path class="a" d="M819.32,433.94,811.78,439c-5.18-7.82-14.19-12.67-24.61-12.67-17.69,0-31.2,12.84-31.2,31.82S769.48,490,787.17,490c10.42,0,19.31-4.73,24.61-12.62l7.32,5.41c-6.54,9.85-18.36,15.94-31.93,15.94-23.43,0-40.72-16.9-40.72-40.55s17.29-40.54,40.72-40.54C800.91,417.61,813.13,423.8,819.32,433.94Z"/><path class="a" d="M912.67,458.15c0,23.65-17.24,40.55-40.72,40.55s-40.71-16.9-40.71-40.55,17.29-40.54,40.71-40.54S912.67,434.5,912.67,458.15Zm-71.91,0c0,19,13.51,31.82,31.19,31.82s31.26-12.84,31.26-31.82S889.69,426.33,872,426.33,840.76,439.17,840.76,458.15Z"/><path class="a" d="M985.63,497.57H931V418.73H940V489h45.61Z"/><path class="a" d="M1054,497.57H999.29V418.73h9.06V489H1054Z"/><path class="a" d="M1123.09,497.57h-55.47V418.73h55v8.51h-45.89v26.41h44.49v8.44h-44.49v27h46.4Z"/><path class="a" d="M1210.12,430.84l-6.7,6.42a30.51,30.51,0,0,0-23.87-10.93c-17.69,0-31.2,12.84-31.2,31.82s13.51,31.82,30.8,31.82c16.67,0,27-9.92,28.38-26.08H1183v-8.44h34.35c.06.78.11,1.57.11,2.31,0,23-14.52,40.88-38.29,40.88-20.72,0-40.32-15-40.32-40.49,0-23.71,17.46-40.54,40.72-40.54C1192.05,417.61,1202.92,422.56,1210.12,430.84Z"/><path class="a" d="M1291.2,497.57h-55.47V418.73h55v8.51h-45.9v26.41h44.49v8.44h-44.49v27h46.41Z"/><path class="a" d="M648.67,485.17h-9.25v-5.09c-2.91,3.76-7.29,6.19-13.31,6.19-11.85,0-21.18-9.33-21.18-22.29s9.33-22.29,21.18-22.29a16.08,16.08,0,0,1,13.31,6.24V442.8h9.25ZM614.43,464c0,7.43,4.83,13.58,12.79,13.58,7.65,0,12.78-5.84,12.78-13.58s-5.13-13.58-12.78-13.58C619.26,450.4,614.43,456.55,614.43,464Z"/><path class="a" d="M692,451.2H675.81v18.45c0,5.7,3,7.91,6.73,7.91a17,17,0,0,0,8.53-2.87l3.67,7.38a22.85,22.85,0,0,1-13,4.2c-9.6,0-15.21-5.17-15.21-16.45V451.2h-8.45v-8.4h8.45V430h9.28V442.8H692Z"/></svg>